<!DOCTYPE svg PUBLIC "-//W3C//DTD SVG 1.1//EN" "http://www.w3.org/Graphics/SVG/1.1/DTD/svg11.dtd">
<!-- Uploaded to: SVG Repo, www.svgrepo.com, Transformed by: SVG Repo Mixer Tools -->
<svg height="800px" width="800px" version="1.1" id="Layer_1" xmlns="http://www.w3.org/2000/svg" xmlns:xlink="http://www.w3.org/1999/xlink" viewBox="0 0 512 512" xml:space="preserve" fill="#000000">
<g id="SVGRepo_bgCarrier" stroke-width="0"/>
<g id="SVGRepo_tracerCarrier" stroke-linecap="round" stroke-linejoin="round"/>
<g id="SVGRepo_iconCarrier"> <path style="fill:#1978d2;" d="M474.638,279.524L419.286,512h33.211c30.443,0,55.351-24.908,55.351-55.351V279.524H474.638z"/> <path style="fill:#1fa2ff;" d="M474.638,279.524v177.124c0,30.443-24.908,55.351-55.351,55.351H59.503 c-30.443,0-55.351-24.908-55.351-55.351V279.524h127.308l119.005,66.422l119.005-66.422H474.638z"/> <path style="fill:#ffe9ad;" d="M131.459,279.524v110.703c0,18.266,14.945,33.211,33.211,33.211h171.589 c18.266,0,33.211-14.945,33.211-33.211V279.524H131.459z"/> <path style="fill:#f3c03f;" d="M325.189,387.459H175.741c-4.585,0-8.303-3.717-8.303-8.303v-66.422c0-4.585,3.717-8.303,8.303-8.303 c4.585,0,8.303,3.717,8.303,8.303v58.119h132.843v-58.119c0-4.585,3.716-8.303,8.303-8.303c4.586,0,8.303,3.717,8.303,8.303v66.422 C333.492,383.742,329.776,387.459,325.189,387.459z"/> <path style="fill:#1fa2ff;" d="M284.012,24.573c-3.244-3.242-8.5-3.242-11.742,0l-7.966,7.967V8.303 c0-4.585-3.716-8.303-8.303-8.303c-4.585,0-8.303,3.717-8.303,8.303V32.54l-7.967-7.967c-3.242-3.242-8.5-3.242-11.741,0 c-3.242,3.242-3.242,8.5,0,11.741l19.708,19.708v27.401c0,4.585,3.717,9.587,8.303,9.587c4.586,0,8.303-5.002,8.303-9.587v-27.4 l19.71-19.71C287.254,33.072,287.254,27.814,284.012,24.573z"/> <path style="fill:#40c6f7;" d="M284.012,206.954l-19.71-19.71v-27.401c0-4.585-3.716-9.31-8.303-9.31l-24.908-14.381v-28.759 L256,93.011v-17.89c-1.434,0-2.867,0.371-4.151,1.113L222.91,92.943l-19.579-11.304l-7.214-26.923 c-1.187-4.429-5.74-7.055-10.169-5.871c-4.429,1.187-7.057,5.74-5.871,10.169l2.916,10.883l-20.989-12.119 c-3.972-2.294-9.05-0.932-11.341,3.039c-2.293,3.971-0.932,9.049,3.039,11.341l20.989,12.119l-10.883,2.916 c-4.429,1.187-7.057,5.74-5.872,10.169c0.994,3.71,4.348,6.156,8.015,6.156c0.712,0,1.435-0.092,2.154-0.285l26.924-7.213 l19.458,11.234v28.762l-19.458,11.234l-26.923-7.214c-4.426-1.183-8.982,1.441-10.169,5.871s1.441,8.982,5.871,10.169l10.883,2.916 l-20.989,12.119c-3.971,2.293-5.331,7.371-3.039,11.341c1.538,2.664,4.328,4.152,7.198,4.152c1.408,0,2.836-0.359,4.144-1.114 l20.989-12.119l-2.916,10.882c-1.187,4.429,1.441,8.982,5.871,10.169c0.72,0.193,1.442,0.285,2.154,0.285 c3.665,0,7.021-2.447,8.015-6.156l7.214-26.923l19.339-11.165l25.028,14.45v22.331l-19.708,19.708c-3.242,3.242-3.242,8.5,0,11.741 c3.242,3.242,8.5,3.242,11.741,0l7.967-7.967v24.237c0,4.585,3.717,8.303,8.303,8.303c4.586,0,8.303-3.717,8.303-8.303v-24.236 l7.966,7.967c1.622,1.621,3.747,2.432,5.872,2.432s4.25-0.81,5.872-2.432C287.254,215.454,287.254,210.197,284.012,206.954z"/> <path style="fill:#1fa2ff;" d="M358.299,171.11l-20.989-12.119l10.883-2.916c4.429-1.187,7.057-5.74,5.871-10.169 c-1.186-4.429-5.739-7.054-10.169-5.871l-26.923,7.215l-19.459-11.234v-28.763l19.458-11.234l26.923,7.213 c0.72,0.193,1.444,0.285,2.154,0.285c3.666,0,7.021-2.447,8.014-6.156c1.187-4.429-1.441-8.981-5.871-10.169l-10.883-2.916 l20.989-12.119c3.971-2.293,5.331-7.371,3.039-11.341c-2.293-3.972-7.373-5.333-11.341-3.039l-20.989,12.119l2.916-10.883 c1.187-4.429-1.441-8.981-5.871-10.169c-4.43-1.187-8.982,1.441-10.169,5.872l-7.213,26.922l-19.58,11.305l-28.937-16.707 c-1.284-0.742-2.718-1.113-4.151-1.113v17.89l24.908,14.381v28.761L256,150.535v17.89c1.434,0,2.867-0.371,4.151-1.113 l29.179-16.847l19.34,11.167l7.213,26.922c0.993,3.71,4.348,6.156,8.014,6.156c0.712,0,1.435-0.092,2.154-0.285 c4.429-1.187,7.057-5.74,5.871-10.169l-2.916-10.883l20.989,12.119c1.309,0.755,2.735,1.114,4.144,1.114 c2.869,0,5.66-1.49,7.198-4.152C363.632,178.48,362.27,173.403,358.299,171.11z"/> </g>
</svg>